<?xml version="1.0" standalone="no"?>
<!DOCTYPE svg PUBLIC "-//W3C//DTD SVG 20010904//EN"
 "http://www.w3.org/TR/2001/REC-SVG-20010904/DTD/svg10.dtd">
<svg version="1.0" xmlns="http://www.w3.org/2000/svg"
 width="512.000000pt" height="512.000000pt" viewBox="0 0 512.000000 512.000000"
 preserveAspectRatio="xMidYMid meet">
<metadata>
Created by potrace 1.14, written by Peter Selinger 2001-2017
</metadata>
<g transform="translate(0.000000,512.000000) scale(0.100000,-0.100000)"
fill="#000000" stroke="none">
<path d="M747 4214 c-1 -1 -36 -4 -78 -6 -146 -9 -272 -95 -340 -233 l-34 -70
-3 -1187 -2 -1188 42 -1 c24 0 116 -1 206 0 118 0 162 -3 163 -12 3 -87 30
-188 73 -277 40 -84 157 -203 246 -253 233 -129 522 -93 719 89 124 115 194
265 200 430 l1 21 619 1 618 1 7 -64 c33 -321 309 -564 629 -554 162 5 292 59
416 174 81 75 163 224 177 322 8 58 13 97 13 109 1 8 54 12 174 12 94 0 187 1
205 1 l32 1 0 518 c0 506 -1 518 -21 542 -11 14 -94 124 -185 245 -90 121
-170 227 -177 235 -6 9 -59 78 -116 155 -57 77 -108 144 -113 150 -5 6 -127
10 -316 10 l-307 0 -2 409 c-1 224 -4 410 -7 413 -4 5 -2834 11 -2839 7z
m3366 -1144 c2 -3 88 -113 192 -245 103 -132 192 -246 197 -252 8 -10 -83 -13
-450 -13 l-461 0 1 253 c0 138 1 254 3 257 4 7 512 6 518 0z m-2694 -1250
c126 -34 224 -190 208 -331 -30 -250 -345 -359 -523 -181 -87 87 -116 242 -65
345 73 149 215 212 380 167z m2479 -1 c79 -25 142 -83 178 -162 55 -120 31
-254 -61 -348 -111 -115 -316 -117 -429 -5 -67 66 -91 125 -91 226 0 72 4 92
27 135 72 137 230 202 376 154z"/>
</g>
</svg>
